<svg xmlns="http://www.w3.org/2000/svg" xmlns:xlink="http://www.w3.org/1999/xlink" width="25" height="25" viewBox="0 0 25 25">
    <defs>
        <filter id="m95iawwgha" width="133.6%" height="133.6%" x="-16.8%" y="-12%" filterUnits="objectBoundingBox">
            <feOffset dy="1" in="SourceAlpha" result="shadowOffsetOuter1"/>
            <feGaussianBlur in="shadowOffsetOuter1" result="shadowBlurOuter1" stdDeviation="1"/>
            <feColorMatrix in="shadowBlurOuter1" values="0 0 0 0 0 0 0 0 0 0 0 0 0 0 0 0 0 0 0.0399912587 0"/>
        </filter>
        <rect id="ekre9zmaqb" width="20.832" height="20.832" x="0" y="0" rx="10.416"/>
    </defs>
    <g fill="none" fill-rule="evenodd">
        <g>
            <g>
                <g transform="translate(-279 -75) translate(281 76)">
                    <use fill="#000" filter="url(#m95iawwgha)" xlink:href="#ekre9zmaqb"/>
                    <use fill="#F5A623" xlink:href="#ekre9zmaqb"/>
                </g>
                <g fill="#101010" fill-rule="nonzero">
                    <path d="M10.924 2.505c-.081-.1-.204-.159-.334-.159H2.793l-.032-.293-.002-.01C2.607.878 1.605 0 .431 0 .193 0 0 .193 0 .43c0 .238.193.431.43.431.743 0 1.376.554 1.475 1.29l.512 4.701c-.448.203-.76.654-.76 1.177V8.05c0 .712.58 1.292 1.292 1.292h.175c-.044.128-.067.266-.067.409 0 .7.57 1.27 1.27 1.27.7 0 1.27-.57 1.27-1.27 0-.143-.024-.28-.068-.41h1.857c-.044.13-.067.267-.067.41 0 .7.57 1.27 1.27 1.27.7 0 1.27-.57 1.27-1.27 0-.7-.57-1.27-1.27-1.27h-5.64c-.237 0-.43-.193-.43-.43V8.04v-.011c0-.238.193-.43.43-.43h5.496c.764 0 1.465-.473 1.787-1.205.095-.218-.004-.472-.222-.567-.217-.096-.471.003-.567.22-.18.413-.582.69-.998.69H3.27l-.385-3.53h7.175l-.21 1.01c-.05.233.1.46.333.51.03.006.059.009.088.009.2 0 .379-.14.421-.343l.319-1.528c.026-.127-.006-.26-.088-.36zM8.588 9.342c.226 0 .41.183.41.409 0 .225-.184.409-.41.409-.225 0-.408-.184-.408-.41 0-.225.183-.408.408-.408zm-4.261 0c.225 0 .409.183.409.409 0 .225-.184.409-.41.409-.225 0-.408-.184-.408-.41 0-.225.183-.408.409-.408z" transform="translate(-279 -75) translate(281 76) translate(4.704 4.704)"/>
                </g>
            </g>
        </g>
    </g>
</svg>
