<svg xmlns="http://www.w3.org/2000/svg" width="25" height="25" viewBox="0 0 25 25">
    <g fill="none" fill-rule="evenodd" opacity=".329">
        <g fill="#073D90" fill-rule="nonzero">
            <g style="mix-blend-mode:luminosity">
                <path d="M24.36 16.486c0-3.55-2.392-6.653-5.766-7.588C18.382 3.956 14.295 0 9.302 0 4.172 0 0 4.173 0 9.302c0 1.671.445 3.299 1.29 4.727L.034 18.57l4.54-1.256c1.313.777 2.795 1.214 4.324 1.28.935 3.374 4.037 5.767 7.588 5.767 1.417 0 2.795-.377 4.006-1.095l3.834 1.06-1.06-3.833c.717-1.21 1.094-2.589 1.094-4.006zM4.799 15.77l-2.718.752.752-2.718-.171-.268c-.808-1.263-1.235-2.728-1.235-4.234 0-4.342 3.533-7.875 7.875-7.875 4.341 0 7.874 3.533 7.874 7.875 0 4.341-3.533 7.874-7.874 7.874-1.507 0-2.972-.427-4.235-1.235l-.268-.171zm17.48 6.509l-2.017-.558-.27.175c-1.043.678-2.256 1.037-3.506 1.037-2.79 0-5.243-1.805-6.112-4.392 4.273-.493 7.674-3.894 8.167-8.167 2.587.869 4.392 3.321 4.392 6.112 0 1.25-.359 2.463-1.037 3.507l-.175.27.558 2.016z" transform="translate(-147 -618) translate(147 618)"/>
                <path d="M8.4 12.6L10.08 12.6 10.08 14.28 8.4 14.28zM10.29 7.204c0 .427-.17.82-.479 1.109L8.085 9.927v1.833h1.47v-1.171l1.249-1.168c.607-.568.956-1.376.956-2.217 0-1.657-1.319-3.004-2.94-3.004S5.88 5.547 5.88 7.204h1.47c0-.828.66-1.502 1.47-1.502.81 0 1.47.674 1.47 1.502z" transform="translate(-147 -618) translate(147 618)"/>
            </g>
        </g>
    </g>
</svg>
