<svg xmlns="http://www.w3.org/2000/svg" width="41" height="41" viewBox="0 0 41 41">
    <g fill="none" fill-rule="evenodd" opacity=".087">
        <g fill="#000" fill-rule="nonzero">
            <g>
                <path d="M40.641 9.32c-.304-.374-.76-.591-1.243-.591H10.39l-.119-1.092-.004-.035C9.697 3.268 5.972 0 1.602 0 .717 0 0 .717 0 1.602c0 .884.717 1.601 1.602 1.601 2.763 0 5.118 2.062 5.486 4.799l1.904 17.49c-1.665.755-2.826 2.433-2.826 4.377v.08c0 2.65 2.155 4.805 4.805 4.805h.651c-.162.477-.25.99-.25 1.521 0 2.605 2.119 4.725 4.724 4.725s4.724-2.12 4.724-4.725c0-.532-.088-1.044-.251-1.521h6.909c-.163.477-.251.99-.251 1.521 0 2.605 2.12 4.725 4.724 4.725 2.605 0 4.725-2.12 4.725-4.725 0-2.605-2.12-4.724-4.725-4.724h-20.98c-.883 0-1.602-.719-1.602-1.602v-.04-.04c0-.883.719-1.601 1.602-1.601h20.446c2.843 0 5.452-1.76 6.647-4.482.356-.81-.013-1.754-.823-2.11-.81-.355-1.754.013-2.11.823-.673 1.534-2.166 2.565-3.714 2.565h-19.25l-1.43-13.132h26.691l-.783 3.757c-.18.865.375 1.714 1.24 1.894.11.023.22.035.33.035.742 0 1.408-.52 1.565-1.275l1.186-5.686c.099-.472-.02-.963-.325-1.337zm-8.69 25.434c.84 0 1.522.682 1.522 1.521 0 .84-.683 1.522-1.522 1.522s-1.521-.683-1.521-1.522.682-1.521 1.521-1.521zm-15.855 0c.839 0 1.521.682 1.521 1.521 0 .84-.682 1.522-1.521 1.522-.84 0-1.522-.683-1.522-1.522s.683-1.521 1.522-1.521z" transform="translate(-133 -182) translate(133 182)"/>
            </g>
        </g>
    </g>
</svg>
