<svg xmlns="http://www.w3.org/2000/svg" width="56" height="56" viewBox="0 0 56 56">
    <g fill="none">
        <path fill="#FFF" d="M55.619 25.371C52.229-7.695 2.552-7.77.305 25.067c-1.143 9.257 2.705 17.6 8.457 23.2l.038.038c.038.038 1.41 1.295 1.486 1.295.495.381 1.066.838 1.562 1.181h.038c5.219 3.695 11.619 5.676 18.666 5.029 1.22-.115 2.096-1.258 1.867-2.477l-.38-1.943c-.191-1.066-1.182-1.79-2.249-1.676-1.295.115-2.666.076-2.933.038h-.038c-7.429-.19-15.39-5.104-18.78-13.028 0 0 0-.038-.039-.038-.114-.229-.61-1.524-.686-1.867-4.952-15.048 7.657-29.98 22.82-28.229h.037c3.848.343 7.162 2.02 7.162 2.02 4.42 2.171 7.696 5.561 9.448 8.838.495.495 4.762 8.38 1.714 17.485 5.067 1.638 3.848 1.257 5.867 1.867 1.295-3.771 1.6-7.39 1.257-11.429z"/>
        <path fill="#4988FD" d="M24.952.533h-.076C11.048 2.057.838 13.523.19 26.705c0 0-1.257 10.095 7.239 20.266.114.153 2.628 2.667 2.819 2.667.457.381 1.066.838 1.562 1.181h.038c5.295 3.733 11.39 5.41 17.485 5.105 2.172-.114 3.505-2.4 2.629-4.343-1.105-2.438-3.657-1.6-5.105-1.79h-.038c-4.457-.115-9.98-2.21-13.752-5.867-.077-.076-1.105-1.067-1.143-1.181-.381-.19-2.743-3.276-3.886-5.981C1.562 23.848 12 5.829 28.686 6.514c.076 0 1.41.076 1.485.115 7.086.61 13.6 5.333 16.61 10.857.648.647 3.962 7.39 2.4 14.895-.305 1.524.61 3.01 2.095 3.467 1.753.571 3.62-.534 3.962-2.324C59.086 14.019 42.171-1.486 24.952.534z"/>
        <path fill="#2767F4" d="M27.581 13.829c-.533 0-.99-.42-.99-.99v-1.83c0-.533.419-.99.99-.99s.99.42.99.99v1.83c0 .532-.457.99-.99.99zM27.581 46.857c-.533 0-.99-.419-.99-.99v-1.829c0-.533.419-.99.99-.99s.99.419.99.99v1.829c0 .571-.457.99-.99.99zM11.962 29.41h-1.829c-.533 0-.99-.42-.99-.991s.419-.99.99-.99h1.829c.533 0 .99.419.99.99s-.419.99-.99.99zM45.029 29.41H43.2c-.533 0-.99-.42-.99-.991s.419-.99.99-.99h1.829c.533 0 .99.419.99.99s-.457.99-.99.99zM35.162 19.733c-.42-.343-1.029-.266-1.372.153l-3.58 4.533c-.686-.38-1.486-.571-2.324-.571-1.105 0-2.096.342-2.896.952l-9.828-8.19c-.42-.343-1.029-.305-1.372.114-.342.419-.304 1.028.115 1.371l9.752 8.153c-.457.723-.724 1.6-.724 2.552 0 2.705 2.21 4.914 4.915 4.914 2.704 0 4.914-2.21 4.914-4.914 0-1.181-.42-2.248-1.105-3.124l3.62-4.571c.38-.457.304-1.067-.115-1.372z"/>
    </g>
</svg>
