<svg xmlns="http://www.w3.org/2000/svg" width="50" height="67" viewBox="0 0 50 67">
    <g fill="none" fill-rule="evenodd" opacity=".087">
        <g fill="#000" fill-rule="nonzero">
            <g>
                <path d="M24.586 25.54c-.82-.806-2.151-.81-2.974-.004l-6.914 6.808-2.714-2.675c-.819-.806-2.15-.806-2.97 0-.819.807-.819 2.117 0 2.923l4.2 4.134c.408.405.946.607 1.484.607.537 0 1.075-.202 1.487-.603l8.4-8.268c.82-.806.82-2.116 0-2.922zM24.586 41.94c-.82-.806-2.151-.81-2.974-.004l-6.914 6.808-2.714-2.67c-.819-.806-2.15-.806-2.97 0-.819.806-.819 2.116 0 2.922l4.2 4.134c.408.4.946.603 1.484.603.537 0 1.075-.202 1.487-.603l8.4-8.268c.82-.806.82-2.116 0-2.922zM39.533 28.933h-8.266c-1.141 0-2.067.896-2.067 2s.926 2 2.067 2h8.266c1.141 0 2.067-.896 2.067-2s-.926-2-2.067-2zM39.533 45.733h-8.266c-1.141 0-2.067.896-2.067 2s.926 2 2.067 2h8.266c1.141 0 2.067-.896 2.067-2s-.926-2-2.067-2z" transform="translate(-135 -151) translate(135 151)"/>
                <path d="M45.833 8.433H37.5V6.358c0-1.145-.933-2.075-2.083-2.075h-4.521C30.033 1.868 27.716.133 25 .133c-2.717 0-5.033 1.735-5.896 4.15h-4.52c-1.15 0-2.084.93-2.084 2.075v2.075H4.167C1.87 8.433 0 10.297 0 12.583v49.8c0 2.287 1.87 4.15 4.167 4.15h41.666c2.296 0 4.167-1.863 4.167-4.15v-49.8c0-2.286-1.87-4.15-4.167-4.15zm-29.166 0h4.166c1.15 0 2.084-.93 2.084-2.075S23.85 4.283 25 4.283c1.15 0 2.083.93 2.083 2.075 0 1.146.934 2.075 2.084 2.075h4.166v4.15H16.667v-4.15zm29.166 53.95H4.167v-49.8H12.5v2.075c0 1.146.933 2.075 2.083 2.075h20.834c1.15 0 2.083-.93 2.083-2.075v-2.075h8.333v49.8z" transform="translate(-135 -151) translate(135 151)"/>
            </g>
        </g>
    </g>
</svg>
