<svg xmlns="http://www.w3.org/2000/svg" width="56" height="57" viewBox="0 0 56 57">
    <g fill="none">
        <path fill="#FFF" d="M54.703 12.31l-1.182-.153c-.572-.076-1.03-.459-1.22-.994-.153-.382-.305-.765-.496-1.147-.229-.497-.19-1.109.153-1.567l.724-.956c.458-.612.382-1.453-.152-1.988L50.509 3.48c-.534-.535-1.373-.612-1.983-.153l-.954.726c-.457.344-1.067.383-1.563.153-.381-.19-.763-.344-1.144-.497-.534-.19-.915-.65-.992-1.223l-.19-1.185C43.568.535 42.92 0 42.157 0h-2.86c-.762 0-1.41.573-1.525 1.3l-.19 1.185c-.077.573-.458 1.032-.992 1.223-.382.153-.763.306-1.144.497-.496.23-1.106.191-1.564-.153l-.953-.726c-.61-.459-1.45-.382-1.983.153l-2.021 2.026c-.534.535-.61 1.376-.153 1.988l.725.956c.343.458.381 1.07.152 1.567-.19.382-.343.765-.495 1.147-.191.535-.649.918-1.22.994l-1.183.153c-.763.115-1.296.765-1.296 1.53v2.866c0 .115 0 .191.038.306 0 .038.038.077.038.115 0 .038.038.076.038.115l.114.229c0 .038.038.038.038.076 0 0 0 .039.039.039.038.038.076.076.076.114.038.077.114.115.19.153.039.038.077.038.115.077.038.038.076.038.114.076.153.077.344.153.496.191l1.068.153.114.038c.077 0 .153.039.19.039.077.038.115.038.192.076.038 0 .076.038.114.077.038 0 .038.038.076.038.038.038.115.076.153.115.038.038.114.076.152.152.038.039.077.115.115.153 0 0 0 .039.038.039 0 .038.038.038.038.076s.038.038.038.076c.038.077.076.115.076.192 0 .038 0 .038.039.076.076.191.114.344.19.497.076.191.153.382.267.574.038.038.038.114.076.152.039.039.039.115.039.153 0 .039.038.115.038.153.038.268 0 .535-.115.803-.038.077-.076.115-.114.191 0 .038-.038.077-.076.077l-.725.955c-.076.077-.114.153-.152.23-.039.076-.039.115-.077.191 0 .038-.038.076-.038.153-.038.191-.038.42 0 .612v.038c.038.153.076.267.153.382.038.038.038.077.076.153s.114.153.19.23l.42.42 1.602 1.606c.534.535 1.373.611 1.983.152l.953-.726c.458-.344 1.068-.382 1.564-.153.19.077.38.191.572.268.152.038.267.114.419.153.038 0 .038 0 .076.038s.077.038.115.038c.038 0 .076.038.114.038.038 0 .076.039.115.039.076.038.114.076.152.114 0 0 .038 0 .038.039.038.038.115.076.153.114l.114.115c0 .038.038.038.038.076l.077.077c.038.076.076.115.114.191 0 .038.038.038.038.076.038.039.038.115.038.153 0 .039.038.115.038.153v.039l.191 1.185c.038.19.076.382.19.535.039.076.077.115.115.153.038.038.076.114.114.153.039.038.077.076.115.076.076.077.152.115.229.153l.228.115c.153.076.344.114.534.114h2.975c.686-.038 1.296-.573 1.373-1.3l.19-1.184c.077-.574.458-1.033.992-1.224.381-.153.763-.306 1.144-.497.496-.23 1.106-.191 1.563.153l.954.726c.61.46 1.449.383 1.983-.152l2.02-2.027c.535-.535.61-1.376.153-1.988l-.724-.955c-.343-.459-.382-1.07-.153-1.568.19-.382.343-.764.496-1.147.19-.535.648-.917 1.22-.994l1.182-.19c.763-.115 1.297-.765 1.297-1.53v-2.867c0-.726-.534-1.376-1.297-1.491zm-13.995 8.296c-2.936 0-5.339-2.409-5.339-5.352 0-2.944 2.403-5.353 5.34-5.353 2.936 0 5.338 2.409 5.338 5.353 0 2.982-2.402 5.352-5.339 5.352z"/>
        <path fill="#4988FD" d="M42.579 31.46c-.153-.116-.307-.23-.46-.307h-2.992c-.192 0-.384-.038-.537-.115l-.23-.115c-.077-.038-.154-.115-.23-.153-.039-.038-.077-.038-.116-.077-.038-.038-.076-.115-.115-.153-.038-.038-.077-.115-.115-.153-.077-.153-.153-.345-.192-.536l-.153-1.187v-.039c0-.038-.039-.114-.039-.153 0-.038-.038-.115-.038-.153 0-.038-.038-.038-.038-.076-.039-.077-.077-.115-.115-.192 0-.038-.039-.038-.077-.077 0-.038-.038-.038-.038-.076l-.115-.115c-.039-.038-.077-.077-.154-.115 0 0-.038 0-.038-.038-.039-.038-.115-.077-.154-.115-.038 0-.076-.038-.115-.038-.038 0-.076-.039-.115-.039-.038 0-.077-.038-.115-.038-.038 0-.038 0-.077-.038-.153-.039-.268-.115-.422-.153-.191-.077-.383-.154-.575-.268-.499-.23-1.112-.192-1.573.153l-.959.727c-.613.46-1.457.383-1.994-.153l-1.612-1.608-.421-.421c-.077-.077-.154-.154-.192-.23-.039-.039-.039-.077-.077-.153-.077-.115-.115-.23-.153-.383v-.039c-.039-.191-.039-.42 0-.612 0-.039.038-.115.038-.154.038-.076.038-.114.077-.191.038-.077.076-.153.153-.23l.729-.957c.038-.038.038-.077.077-.077.038-.076.076-.115.115-.191.115-.268.153-.536.115-.804 0-.039 0-.115-.039-.154 0-.038-.038-.114-.038-.153-.038-.038-.038-.115-.077-.153-.076-.191-.191-.383-.268-.574-.077-.154-.115-.345-.192-.498 0-.038 0-.038-.038-.077-.039-.076-.039-.115-.077-.191 0-.039-.038-.039-.038-.077s-.039-.038-.039-.076c0 0 0-.039-.038-.039-.038-.038-.077-.115-.115-.153l-.154-.153c-.038-.038-.076-.077-.153-.115-.038 0-.038-.038-.077-.038-.038-.039-.077-.039-.115-.077-.077-.038-.115-.038-.192-.076-.076-.039-.115-.039-.191-.039h-.116l-1.074-.153c-.191-.038-.345-.076-.498-.153-.039 0-.077-.038-.115-.077-.039-.038-.077-.038-.115-.076-.077-.039-.116-.115-.192-.153-.039-.039-.077-.077-.077-.115 0 0 0-.039-.038-.039 0-.038-.039-.038-.039-.076l-.115-.23c0-.038-.038-.077-.038-.115 0-.038-.038-.076-.038-.115 0-.076-.039-.191-.039-.306v-2.872-.268c-.383-.421-.959-.651-1.534-.651H19.64c-1.074 0-1.995.804-2.148 1.838l-.23 1.685c-.115.804-.69 1.455-1.42 1.723-.575.192-1.112.421-1.649.69-.729.344-1.573.267-2.225-.192l-1.38-1.034c-.883-.651-2.072-.536-2.84.191L4.91 21.311c-.767.766-.844 1.953-.192 2.834l1.036 1.379c.499.65.575 1.493.192 2.22-.269.537-.46 1.073-.69 1.647-.27.766-.921 1.302-1.727 1.417l-1.688.23C.767 31.191 0 32.11 0 33.183v4.02c0 1.073.767 1.992 1.841 2.145l1.688.23c.806.115 1.458.689 1.726 1.417.192.574.422 1.11.69 1.646.346.728.27 1.57-.191 2.221l-1.036 1.379c-.307.421-.46.919-.422 1.379.039.536.23 1.033.614 1.416l2.839 2.873c.767.765 1.956.842 2.838.191l1.381-.996c.652-.498 1.496-.574 2.225-.23.269.115.537.269.844.383.268.115.537.192.805.307.422.153.768.421 1.036.766.192.268.345.574.384.957l.23 1.685c.077.421.268.843.537 1.149.384.421.959.727 1.611.727h4.028c1.074 0 1.994-.765 2.148-1.838l.23-1.685c.115-.804.652-1.455 1.42-1.723.575-.191 1.112-.421 1.649-.69.383-.19.844-.267 1.266-.19.345.038.69.19.959.42l1.38.996c.5.383 1.113.498 1.65.383.422-.076.844-.268 1.15-.612l2.84-2.873c.306-.306.537-.727.613-1.148.115-.575-.038-1.188-.383-1.685l-1.036-1.379c-.23-.306-.345-.651-.422-1.034-.038-.383 0-.804.192-1.187.268-.536.46-1.072.69-1.647.269-.766.92-1.302 1.726-1.417l1.688-.23c1.074-.153 1.841-1.072 1.841-2.144v-4.02c.039-.69-.268-1.264-.69-1.686zM21.635 42.64c-4.181 0-7.557-3.37-7.557-7.544 0-2.106.882-4.02 2.263-5.4 1.343-1.34 3.222-2.144 5.294-2.144 4.18 0 7.557 3.37 7.557 7.544 0 4.174-3.376 7.544-7.557 7.544z"/>
        <path fill="#2767F4" d="M28.108 21.152l-1.266-.19c-.816-.114-1.387-.757-1.387-1.515v-1.629c.244.265.571.417.98.493l1.142.151h.122c.245.038.45.114.653.227.286.19.531.455.654.758.163.379.326.758.53 1.136.245.493.204 1.023-.081 1.478-.245-.455-.776-.834-1.347-.91z"/>
        <path fill="#3973F4" d="M43.273 32.373v.415c-.264.19-.565.303-.904.303h-2.826c-.753 0-1.394-.567-1.507-1.285l-.188-1.172c-.076-.567-.452-1.021-.98-1.21-.376-.151-.753-.302-1.13-.492-.49-.264-1.092-.189-1.544.152l-.942.718c-.603.454-1.432.378-1.96-.151l-1.996-2.004c-.527-.53-.603-1.36-.15-1.966l.188-.226 1.582 1.587c.527.53 1.356.605 1.959.152l.942-.719c.452-.34 1.055-.378 1.544-.151.377.19.754.34 1.13.491.377.152.679.416.867.757.075.113.113.264.15.378v.037l.151 1.172c.113.756.754 1.286 1.507 1.286h2.939c.15.075.301.189.452.302.414.416.716.983.716 1.626z"/>
        <path fill="#6097FD" d="M54.703 12.31l-1.182-.153c-.572-.076-1.03-.459-1.22-.994-.153-.382-.305-.765-.496-1.147-.229-.497-.19-1.109.153-1.567l.724-.956c.458-.612.382-1.453-.152-1.988L50.509 3.48c-.534-.535-1.373-.612-1.983-.153l-.954.726c-.457.344-1.067.383-1.563.153-.381-.19-.763-.344-1.144-.497-.534-.19-.915-.65-.992-1.223l-.19-1.185C43.568.535 42.92 0 42.157 0h-2.86c-.762 0-1.41.573-1.525 1.3l-.19 1.185c-.077.573-.458 1.032-.992 1.223-.382.153-.763.306-1.144.497-.496.23-1.106.191-1.564-.153l-.953-.726c-.61-.459-1.45-.382-1.983.153l-2.021 2.026c-.534.535-.61 1.376-.153 1.988l.725.956c.343.458.381 1.07.152 1.567-.19.382-.343.765-.495 1.147-.191.535-.649.918-1.22.994l-1.183.153c-.763.115-1.296.765-1.296 1.53v2.866c0 .115 0 .191.038.306 0 .038.038.077.038.115 0 .038.038.076.038.115l.114.229c0 .038.038.038.038.076 0 0 0 .039.039.039.038.038.076.076.076.114.038.077.114.115.19.153.039.038.077.038.115.077.038.038.076.038.114.076.153.077.344.153.496.191l1.068.153.114.038c.077 0 .153.039.19.039.077.038.115.038.192.076.038 0 .076.038.114.077.038 0 .038.038.076.038.038.038.115.076.153.115.038.038.114.076.152.152.038.039.077.115.115.153 0 0 0 .039.038.039 0 .038.038.038.038.076s.038.038.038.076c.038.077.076.115.076.192 0 .038 0 .038.039.076.076.191.114.344.19.497.076.191.153.382.267.574.038.038.038.114.076.152.039.039.039.115.039.153 0 .039.038.115.038.153.038.268 0 .535-.115.803-.038.077-.076.115-.114.191 0 .038-.038.077-.076.077l-.725.955c-.076.077-.114.153-.152.23-.039.076-.039.115-.077.191 0 .038-.038.076-.038.153-.038.191-.038.42 0 .612v.038c.038.153.076.267.153.382.038.038.038.077.076.153s.114.153.19.23l.42.42 1.602 1.606c.534.535 1.373.611 1.983.152l.953-.726c.458-.344 1.068-.382 1.564-.153.19.077.38.191.572.268.152.038.267.114.419.153.038 0 .038 0 .076.038s.077.038.115.038c.038 0 .076.038.114.038.038 0 .076.039.115.039.076.038.114.076.152.114 0 0 .038 0 .038.039.038.038.115.076.153.114l.114.115c0 .038.038.038.038.076l.077.077c.038.076.076.115.114.191 0 .038.038.038.038.076.038.039.038.115.038.153 0 .039.038.115.038.153v.039l.191 1.185c.038.19.076.382.19.535.039.076.077.115.115.153.038.038.076.114.114.153.039.038.077.076.115.076.076.077.152.115.229.153l.228.115c.153.076.344.114.534.114h2.975c.686-.038 1.296-.573 1.373-1.3l.19-1.184c.077-.574.458-1.033.992-1.224.381-.153.763-.306 1.144-.497.496-.23 1.106-.191 1.563.153l.954.726c.61.46 1.449.383 1.983-.152l2.02-2.027c.535-.535.61-1.376.153-1.988l-.724-.955c-.343-.459-.382-1.07-.153-1.568.19-.382.343-.764.496-1.147.19-.535.648-.917 1.22-.994l1.182-.19c.763-.115 1.297-.765 1.297-1.53v-2.867c0-.726-.534-1.376-1.297-1.491zm-13.995 8.296c-2.936 0-5.339-2.409-5.339-5.352 0-2.944 2.403-5.353 5.34-5.353 2.936 0 5.338 2.409 5.338 5.353 0 2.982-2.402 5.352-5.339 5.352z"/>
    </g>
</svg>
